<?xml version="1.0" encoding="utf-8"?>
<!-- Generator: Adobe Illustrator 25.2.0, SVG Export Plug-In . SVG Version: 6.00 Build 0)  -->
<svg version="1.1" id="Layer_1" xmlns="http://www.w3.org/2000/svg" xmlns:xlink="http://www.w3.org/1999/xlink" x="0px" y="0px"
	 viewBox="0 0 386.2 206.9" style="enable-background:new 0 0 386.2 206.9;" xml:space="preserve">
<style type="text/css">
	.st0{fill:none;stroke:#51B9FF;stroke-width:12;stroke-linecap:round;stroke-miterlimit:10;}
	.st1{fill:none;stroke:#E2A725;stroke-width:12;stroke-linecap:round;stroke-miterlimit:10;}
</style>
<path class="st0" d="M380.2,83.5c-10-39.1-41.7-69.4-81.5-77.5"/>
<path class="st0" d="M271.8,29.7H143.5c-49.3,0-88.8,41.7-85.3,91.7c2.9,42.4,37.5,76.7,79.9,79.3c21.2,1.3,40.9-5.2,56.5-16.8
	c7.7-5.7,18.4-5.7,26.1,0c15.6,11.6,35.3,18.1,56.5,16.8c42.5-2.6,77-36.8,79.9-79.3C360.7,71.3,321.1,29.7,271.8,29.7z"/>
<circle class="st0" cx="143.5" cy="116.4" r="59.9"/>
<path class="st1" d="M332.1,113.3l-37.2-18.6c-1-0.5-2.3-0.5-3.3,0l-39.4,19.7c-1,0.5-2.3,0.5-3.3,0l-39.4-19.7
	c-1-0.5-2.3-0.5-3.3,0l-39.6,19.8c-1,0.5-2.1,0.5-3.1,0.1l-120-51.4"/>
<circle class="st0" cx="281.2" cy="115.2" r="50.9"/>
<circle class="st1" cx="25.6" cy="54.5" r="19.6"/>
</svg>
