<svg width="39" height="38" viewBox="0 0 39 38" xmlns="http://www.w3.org/2000/svg">
    <g transform="translate(1.247 1)" fill-rule="nonzero" fill="none">
        <path d="M33.516 18.523v7.082l-7.46 7.474-3.318-3.278v-2.033c4.72-2.35 7.2-7.63 5.99-12.751A11.364 11.364 0 0 0 17.66 6.275c-5.274 0-9.856 3.62-11.065 8.742a11.335 11.335 0 0 0 5.989 12.751v2.033l-3.286 3.278-7.492-7.474v-7.082H2.99a.92.92 0 0 0 .92-.885.952.952 0 0 0-.92-.918H1.84C2.31 8.702 8.722 2.304 16.758 1.836v1.147c0 .507.412.918.92.918a.888.888 0 0 0 .887-.918V1.836c8.043.467 14.465 6.86 14.95 14.884h-1.182a.919.919 0 0 0-.887.918c0 .489.397.885.887.885h1.183z" fill="#87A3BF"/>
        <path d="M17.678 8.065c5.299 0 9.595 4.286 9.595 9.573 0 5.287-4.296 9.573-9.595 9.573-5.3 0-9.595-4.286-9.595-9.573 0-5.287 4.296-9.573 9.595-9.573zm6.703 9.573a6.72 6.72 0 0 0-4.143-6.236 6.747 6.747 0 0 0-7.356 1.45 6.71 6.71 0 0 0-1.454 7.34 6.736 6.736 0 0 0 6.25 4.134c3.702 0 6.703-2.994 6.703-6.688z" fill="#F2D7A3"/>
        <ellipse fill="#E2A725" cx="17.645" cy="17.605" rx="6.736" ry="6.721"/>
        <path d="M14.36 28.49v1.54c.013.334-.118.657-.362.886l-3.845 3.835a1.217 1.217 0 0 1-1.741 0L.362 26.72A1.179 1.179 0 0 1 0 25.867v-8.229C.018 7.904 7.922.018 17.678 0c9.75.018 17.645 7.91 17.645 17.638v8.229c0 .321-.13.629-.362.852l-8.05 8.032a1.25 1.25 0 0 1-.854.361 1.316 1.316 0 0 1-.887-.36l-3.845-3.836a1.277 1.277 0 0 1-.361-.886v-1.54a11.328 11.328 0 0 1-6.605 0zM7.13 17.638c0 5.812 4.723 10.524 10.548 10.524s10.547-4.712 10.547-10.524c0-5.812-4.722-10.524-10.547-10.524S7.13 11.826 7.13 17.638zM17.678 6.295c5.293-.04 9.91 3.58 11.12 8.721a11.303 11.303 0 0 1-6.06 12.752v2.033l3.319 3.278 7.459-7.474v-7.082h-1.183a.888.888 0 0 1-.887-.885c0-.494.392-.9.887-.918h1.183c-.486-8.023-6.908-14.417-14.95-14.884v1.147a.884.884 0 0 1-.888.918.919.919 0 0 1-.92-.918V1.836C8.722 2.304 2.31 8.702 1.84 16.72h1.15c.501.017.903.418.92.918a.92.92 0 0 1-.92.885H1.807v7.082L9.3 33.079l3.286-3.278v-2.033a11.335 11.335 0 0 1-5.948-12.742 11.364 11.364 0 0 1 11.04-8.731z" fill="#FFF"/>
        <path d="M17.678 8.065a9.595 9.595 0 0 0-8.888 5.887 9.557 9.557 0 0 0 2.059 10.443 9.61 9.61 0 0 0 10.46 2.09 9.573 9.573 0 0 0 5.93-8.847c0-5.274-4.275-9.555-9.561-9.573zm0 20.097c-5.825 0-10.548-4.712-10.548-10.524 0-5.812 4.723-10.524 10.548-10.524s10.547 4.712 10.547 10.524c0 2.791-1.11 5.468-3.089 7.441a10.56 10.56 0 0 1-7.458 3.083z" fill="#FFF"/>
    </g>
</svg>
